<?xml version="1.0" encoding="UTF-8"?>
<svg version="1.1" viewBox="0 0 1600 896" width="1280" height="1280" xmlns="http://www.w3.org/2000/svg">
<path transform="translate(0)" d="m0 0h1600v896h-1600v-896z" fill="#FCFCFC"/>
<path transform="translate(0)" d="m0 0h1600v896h-1600v-896zm51 53c-0.303 2.44-0.303 2.44-0.25 5.33-0.00475 1.14-0.0095 2.28-0.0144 3.45 0.00497 1.27 0.00994 2.53 0.0151 3.83-0.00178 1.35-0.00444 2.71-0.0079 4.06-0.00701 3.75-0.00143 7.49 0.00606 11.2 0.00594 4.06 3.48e-4 8.13-0.00382 12.2-0.0057 7.13-0.00392 14.3 0.00269 21.4 0.00979 10.6 0.00819 21.2 0.00425 31.8-0.00629 17.8-0.00309 35.7 0.00559 53.5 0.0086 17.7 0.0135 35.3 0.0133 53-7.65e-6 1.1-1.53e-5 2.2-2.32e-5 3.33-4.09e-5 4.46-1.07e-4 8.91-2.06e-4 13.4-9.07e-4 41.8 0.00905 83.7 0.0244 125 0.0136 37.2 0.0199 74.4 0.0192 112-4.04e-5 2.39-8.08e-5 4.78-1.21e-4 7.17-2.04e-5 1.18-4.07e-5 2.36-6.17e-5 3.58-1.01e-4 5.94-1.91e-4 11.9-2.7e-4 17.8-1.67e-5 1.17-3.34e-5 2.34-5.06e-5 3.55-3.65e-4 31 0.00417 62.1 0.0104 93.1 2.2e-4 1.1 4.41e-4 2.21 6.67e-4 3.34 8.88e-4 4.44 0.00178 8.88 0.00269 13.3 0.00316 15.5 0.00467 30.9 0.00511 46.4 5.96e-4 19.9 0.00457 39.9 0.0144 59.8 0.00513 10.6 0.00752 21.1 6e-3 31.7-7.31e-4 7.03 0.00214 14.1 0.00804 21.1 0.00327 4.02 0.00491 8.03 0.00224 12.1-0.00239 3.65-2.76e-4 7.29 0.00562 10.9 0.00194 1.95-0.00108 3.89-0.00424 5.84 0.00276 1.14 0.00552 2.27 0.00836 3.45 2.91e-4 0.988 5.83e-4 1.98 8.83e-4 2.99-0.122 2.18-0.122 2.18 1.13 3.21 1.35 0.097 2.71 0.125 4.07 0.125 1.33 0.00353 1.33 0.00353 2.68 0.00713 1.48-0.00376 1.48-0.00376 2.99-0.0076 1.04 0.00128 2.08 0.00256 3.16 0.00387 3.54 0.0031 7.09-0.00102 10.6-0.00502 2.56 7.39e-4 5.11 0.00192 7.67 0.0035 5.6 0.00275 11.2 0.00173 16.8-0.00166 8.39-0.00506 16.8-0.00438 25.2-0.00253 14.3 0.00297 28.6 0.00119 42.9-0.00314 14.5-0.00437 29-0.00657 43.5-0.0061 0.914 2.87e-5 1.83 5.74e-5 2.77 8.69e-5 4.66 1.56e-4 9.32 3.48e-4 14 5.53e-4 33.8 0.00141 67.5-0.00203 101-0.00802 33.4-0.00592 66.9-0.00977 100-0.0109 1.04-3.44e-5 2.08-6.88e-5 3.14-1.04e-4 9.48-3.13e-4 19-6.01e-4 28.4-8.58e-4 23.6-6.39e-4 47.1-0.0016 70.7-0.00278 1.61-8e-5 1.61-8e-5 3.25-1.62e-4 52.2-0.00262 104-0.00893 157-0.0155 18.1-0.00229 36.3-0.00457 54.4-0.00677 1.12-1.37e-4 2.25-2.74e-4 3.41-4.15e-4 52.3-0.00634 105-0.0101 157-0.0131 3.39-1.98e-4 6.78-3.97e-4 10.2-5.97e-4 22.5-0.00132 44.9-0.00259 67.4-0.00384 44.7-0.00248 89.4-0.00522 134-0.00814 2.13-1.39e-4 4.26-2.78e-4 6.39-4.17e-4 95.9-0.00625 192-0.0156 288-0.0263 1.35-1.5e-4 1.35-1.5e-4 2.72-3.03e-4 44.9-5e-3 89.8-0.0102 135-0.0156 0.0171-75.7 0.033-151 0.0423-227 1.38e-4 -1.12 2.76e-4 -2.24 4.18e-4 -3.39 0.00299-24.3 0.00576-48.6 0.0083-73 0.00125-11.9 0.00254-23.9 0.00387-35.8 1.31e-4 -1.19 2.62e-4 -2.37 3.96e-4 -3.6 0.00427-38.5 0.0118-77 0.021-116 0.00942-39.5 0.0156-79.1 0.0176-119 2.88e-4 -5.58 6.14e-4 -11.2 9.62e-4 -16.7 1.01e-4 -1.65 1.01e-4 -1.65 2.04e-4 -3.33 0.00118-17.7 0.00583-35.4 0.0118-53.1 0.00587-17.8 0.00814-35.6 0.00667-53.4-7.64e-4 -10.6 0.00129-21.2 0.0073-31.7 0.00373-7.06 0.00388-14.1 0.00103-21.2-0.00152-4.03-0.0014-8.06 0.00305-12.1 0.00401-3.66 0.00352-7.31-7.43e-4 -11-0.00106-1.95 0.00283-3.9 0.00687-5.86-0.00225-1.14-0.00449-2.28-0.00681-3.46 1.56e-4 -0.991 3.12e-4 -1.98 4.73e-4 -3 0.123-2.19 0.123-2.19-1.12-3.21-1.35-0.0973-2.71-0.125-4.06-0.126-1.32-0.00385-1.32-0.00385-2.67-0.00777-0.983 0.00227-1.97 0.00455-2.98 0.00689-1.56-0.00229-1.56-0.00229-3.15-0.00463-3.54-0.00394-7.08-6.66e-4 -10.6 0.00249-2.55-0.00134-5.1-0.00313-7.66-0.00531-5.59-0.00407-11.2-0.00437-16.8-0.00229-8.37 0.0031-16.7 4.71e-4 -25.1-0.0033-14.3-0.00625-28.5-0.0077-42.8-0.00658-14.5 0.00112-28.9 9.7e-5 -43.4-0.00357-0.912-2.3e-4 -1.82-4.59e-4 -2.76-6.96e-4 -3.72-9.42e-4 -7.43-0.0019-11.1-0.00287-38.8-0.0102-77.6-0.0132-116-0.0138-4.18-6.47e-5 -8.36-1.33e-4 -12.5-2.03e-4 -1.04-1.7e-5 -2.07-3.4e-5 -3.14-5.15e-5 -23-4.08e-4 -45.9-0.0026-68.9-0.0051-9.45-0.00103-18.9-0.00202-28.3-0.00302-1.04-1.11e-4 -2.09-2.21e-4 -3.16-3.35e-4 -59.8-0.00633-120-0.0104-179-0.00999-2.24 1.58e-5 -4.48 3.15e-5 -6.72 4.72e-5 -10.1 7.34e-5 -20.2 1.62e-4 -30.3 2.54e-4 -4.51 4.11e-5 -9.02 8.13e-5 -13.5 1.21e-4 -2.26 2.04e-5 -4.52 4.14e-5 -6.77 6.31e-5 -71.4 6.8e-4 -143-0.00664-214-0.0205-18-0.0035-36-0.00697-54-0.0103-1.11-2.03e-4 -2.22-4.06e-4 -3.36-6.15e-4 -34.1-0.00621-68.3-0.00998-102-0.0112-1.07-4e-5 -2.14-7.99e-5 -3.25-1.21e-4 -23.5-8.53e-4 -47-0.00111-70.5-8.3e-4 -8.41 9.65e-5 -16.8 1.49e-4 -25.2 1.79e-4 -2.09 7.91e-6 -4.18 1.81e-5 -6.28 3.06e-5 -33.4 1.77e-4 -66.8-0.00553-100-0.0142-33.6-0.00864-67.2-0.0109-101-0.00424-4.64 9.12e-4 -9.28 0.00176-13.9 0.00256-0.909 1.6e-4 -1.82 3.2e-4 -2.75 4.85e-4 -14.4 0.00236-28.9-0.00202-43.3-0.00916-14.2-0.00687-28.3-0.00667-42.5 0.00119-8.32 0.0044-16.6 0.00326-25-0.00587-6.16-0.00615-12.3-0.00201-18.5 0.00633-2.49 0.00174-4.98 4.12e-5 -7.47-0.0053-3.36-0.00672-6.71-0.00136-10.1 0.00727-0.981-0.0049-1.96-0.0098-2.97-0.0148-0.885 0.00481-1.77 0.00962-2.68 0.0146-1.15-5.41e-5 -1.15-5.41e-5 -2.32-1.09e-4 -2.11 0.091-2.11 0.091-3.86 2.25z" fill="#FDFDFD"/>
<path transform="translate(54.9 50.8)" d="m0 0c1.15 5.41e-5 1.15 5.41e-5 2.32 1.09e-4 0.885-0.00481 1.77-0.00962 2.68-0.0146 0.981 0.0049 1.96 0.0098 2.97 0.0148 1.04-0.00268 2.08-0.00536 3.16-0.00812 3.54-0.00661 7.07 0.0012 10.6 0.00878 2.55-0.00178 5.11-0.00444 7.66-0.0079 5.59-0.00615 11.2-0.00479 16.8 0.00134 8.37 0.00914 16.7 0.0068 25.1 0.00215 14.3-0.00758 28.5-0.00563 42.8 0.00143 14.5 0.00712 28.9 0.00991 43.4 0.00736 0.912-1.58e-4 1.82-3.16e-4 2.76-4.78e-4 4.65-8.24e-4 9.3-0.00172 14-0.00263 33.7-0.00648 67.4-0.00311 101 0.00559 33.4 0.00861 66.8 0.0135 100 0.0133 2.09-7.92e-6 4.19-1.56e-5 6.28-2.32e-5 8.42-3.74e-5 16.8-1.04e-4 25.3-2.06e-4 23.5-2.78e-4 47.1 1.11e-4 70.6 9.89e-4 1.07 3.97e-5 2.14 7.93e-5 3.25 1.2e-4 34.2 0.00131 68.3 0.00548 102 0.0117 1.11 2.03e-4 2.22 4.06e-4 3.36 6.15e-4 18 0.00331 36 0.0068 54 0.0103 71.4 0.0139 143 0.0205 214 0.0198 2.26-2.04e-5 4.51-4.06e-5 6.77-6.06e-5 4.51-4.02e-5 9.02-8.1e-5 13.5-1.22e-4 10.1-9.14e-5 20.2-1.76e-4 30.3-2.47e-4 2.24-1.58e-5 4.48-3.22e-5 6.72-4.93e-5 59.8-4.45e-4 120 0.00402 179 0.0104 1.04 1.1e-4 2.09 2.2e-4 3.16 3.34e-4 19 0.00201 19 0.00201 28.3 0.00302 23 0.0025 45.9 0.00444 68.9 0.00481 1.55 2.63e-5 1.55 2.63e-5 3.14 5.31e-5 4.18 6.92e-5 8.35 1.34e-4 12.5 1.97e-4 38.7 5.85e-4 77.4 0.00434 116 0.0145 3.7 9.58e-4 7.41 0.0019 11.1 0.00283 1.36 3.46e-4 1.36 3.46e-4 2.75 6.99e-4 14.4 0.00357 28.9 0.0038 43.3 0.00267 14.2-0.00104 28.3 0.00147 42.5 0.00785 8.32 0.00364 16.6 0.00452 25 0.00142 6.15-0.00199 12.3 0.00117 18.5 0.00644 2.49 0.00131 4.98 9.07e-4 7.48-0.00132 3.35-0.00275 6.71 5.15e-4 10.1 0.00544 1.48-0.00341 1.48-0.00341 2.98-0.00689 1.32 0.00385 1.32 0.00385 2.67 0.00777 1.15 1.8e-4 1.15 1.8e-4 2.32 3.63e-4 1.74 0.125 1.74 0.125 2.74 1.13 0.0978 1.74 0.124 3.48 0.124 5.22 0.00225 1.14 0.00449 2.28 0.00681 3.46-0.00263 1.27-0.00525 2.54-0.00796 3.85 7.39e-4 1.36 0.00192 2.71 0.0035 4.07 0.00309 3.76-1.23e-4 7.52-0.00428 11.3-0.00342 4.08-0.00107 8.15 5.77e-4 12.2 0.00208 7.15 4.2e-4 14.3-0.00364 21.5-0.00602 10.6-0.00634 21.3-0.00546 31.9 0.00132 17.9-0.00204 35.8-0.00802 53.7-0.00591 17.7-0.00976 35.5-0.0109 53.2-6.87e-5 1.1-1.37e-4 2.2-2.08e-4 3.34-3.38e-4 5.59-6.4e-4 11.2-9.27e-4 16.8-0.0021 39.6-0.00885 79.3-0.0183 119-0.00918 38.5-0.0163 77-0.0205 116-1.32e-4 1.19-2.63e-4 2.37-3.99e-4 3.59-0.00132 11.9-0.00259 23.8-0.00384 35.7-0.00254 24.3-0.00536 48.5-0.00835 72.8-1.37e-4 1.12-2.75e-4 2.23-4.16e-4 3.38-0.00921 74.6-0.0251 149-0.0419 224-45.8 0.0055-91.7 0.0108-137 0.0159-1.35 1.5e-4 -1.35 1.5e-4 -2.72 3.02e-4 -96.1 0.0107-192 0.0199-288 0.0262-2.13 1.39e-4 -4.27 2.79e-4 -6.4 4.18e-4 -44.8 0.00292-89.5 0.00564-134 0.00812-22.5 0.00125-45 0.00253-67.5 0.00385-3.39 1.99e-4 -6.78 3.97e-4 -10.2 5.95e-4 -52.3 0.00306-105 0.00697-157 0.0133-1.12 1.37e-4 -2.25 2.74e-4 -3.41 4.15e-4 -18.1 0.00221-36.3 0.0045-54.4 0.00679-52.2 0.0066-104 0.0127-157 0.0153-1.07 5.35e-5 -2.14 1.07e-4 -3.25 1.62e-4 -23.5 0.00117-47.1 0.00206-70.6 0.0027-9.47 2.62e-4 -18.9 5.62e-4 -28.4 8.76e-4 -1.04 3.34e-5 -2.07 6.69e-5 -3.14 1.01e-4 -33.4 0.0011-66.9 0.00537-100 0.0113-33.7 0.00596-67.3 0.00882-101 0.00734-4.64-2.03e-4 -9.29-3.7e-4 -13.9-5.16e-4 -0.91-2.99e-5 -1.82-5.98e-5 -2.76-9.05e-5 -14.5-3.82e-4 -28.9 0.00261-43.4 0.00699-14.2 0.00423-28.4 0.00494-42.6 0.00182-8.34-0.00172-16.7-6.63e-4 -25 0.00439-6.16 0.00343-12.3 0.00173-18.5-0.00208-2.5-7.21e-4 -4.99 2.77e-4 -7.49 0.0031-3.36 0.00356-6.72 0.00109-10.1-0.00304-1.48 0.00376-1.48 0.00376-2.99 0.0076-0.884-0.00235-1.77-0.00471-2.68-0.00713-1.15 9.6e-5 -1.15 9.6e-5 -2.32 1.94e-4 -1.74-0.125-1.74-0.125-2.74-1.12-0.0985-1.73-0.126-3.47-0.126-5.2-0.00276-1.14-0.00552-2.27-0.00836-3.45 0.00206-1.27 0.00411-2.53 0.00623-3.84-0.00134-1.35-0.00313-2.7-0.00531-4.05-0.00476-3.75-0.00322-7.49-7.22e-4 -11.2 0.00162-4.06-0.0025-8.13-0.00591-12.2-0.00517-7.13-0.00657-14.3-0.00554-21.4 0.00152-10.6-0.00263-21.2-0.00787-31.8-0.00969-20-0.0125-40.1-0.0131-60.1-4.59e-4 -15.5-0.00251-30.9-0.0057-46.4-8.97e-4 -4.45-0.00179-8.89-0.00267-13.3-2.21e-4 -1.11-4.42e-4 -2.21-6.7e-4 -3.35-0.00616-31.1-0.0101-62.2-0.00966-93.3 1.56e-5 -1.17 3.12e-5 -2.35 4.72e-5 -3.56 8.31e-5 -5.95 1.82e-4 -11.9 2.85e-4 -17.9 1.99e-5 -1.18 3.99e-5 -2.36 6.04e-5 -3.58 4.04e-5 -2.39 8.22e-5 -4.78 1.25e-4 -7.17 6.13e-4 -37.2-0.0069-74.4-0.0206-112-0.0153-41.8-0.024-83.5-0.023-125 7.46e-5 -4.45 1.23e-4 -8.9 1.54e-4 -13.3 1.17e-5 -1.1 2.33e-5 -2.19 3.53e-5 -3.32 3.08e-5 -17.7-0.00637-35.3-0.015-53-0.00846-17.7-0.00948-35.5-0.00289-53.2 0.00371-10.6 0.00182-21.1-0.00794-31.7-0.00596-7.04-0.00475-14.1 0.00247-21.1 0.00391-4.02 0.00457-8.03-0.00346-12-0.00722-3.65-0.00541-7.29 0.00392-10.9 0.00256-1.94-0.00479-3.89-0.0124-5.83 0.00475-1.14 0.0095-2.28 0.0144-3.45-8.82e-5 -0.988-1.76e-4 -1.98-2.67e-4 -2.99 0.315-2.94 1.08-4.18 4.11-4.58zm31.1 34.2c-0.448 2.28-0.448 2.28-0.374 4.86-7e-3 1.01-0.014 2.02-0.0212 3.06 0.0076 1.12 0.0152 2.23 0.023 3.38-0.00376 1.19-0.00752 2.37-0.0114 3.59-0.00744 3.31-0.00132 6.62 0.0103 9.93 0.00937 3.6 0.00141 7.19-0.0044 10.8-0.00778 6.31-0.00434 12.6 0.00632 18.9 0.0158 9.38 0.0145 18.8 0.00971 28.1-0.0076 15.8-0.00106 31.6 0.0136 47.4 0.0145 15.7 0.0233 31.3 0.0242 47 6.11e-5 0.973 1.22e-4 1.95 1.85e-4 2.95 2.3e-4 3.95 4.17e-4 7.9 5.48e-4 11.9 0.00121 36 0.0169 72.1 0.0416 108 0.0233 34 0.0375 68 0.041 102 1.12e-4 1.05 2.23e-4 2.09 3.38e-4 3.17 4.49e-4 4.21 8.91e-4 8.43 0.00133 12.6 2.2e-4 2.1 4.42e-4 4.2 6.64e-4 6.3 2.21e-4 2.1 4.4e-4 4.19 6.56e-4 6.29 0.00352 33.4 0.015 66.9 0.0278 100 0.00371 9.78 0.00698 19.6 0.00925 29.3 0.00482 20.6 0.012 41.2 0.0281 61.7 0.00661 8.51 0.0118 17 0.0125 25.5 5.57e-4 7.07 0.00449 14.1 0.0128 21.2 0.00407 3.55 0.00672 7.1 0.00488 10.6-0.00398 13.7 0.112 27.5 0.588 41.2 0.058 1.75 0.058 1.75 0.117 3.53 0.0412 1.06 0.0825 2.12 0.125 3.21 0.0358 0.935 0.0715 1.87 0.108 2.83-0.0249 2.1-0.0249 2.1 1.2 3.12 3.1 0.0996 6.18 0.132 9.28 0.124 0.993 0.00128 1.99 0.00256 3.01 0.00387 3.38 0.0031 6.76-0.00102 10.1-0.00502 2.44 7.39e-4 4.87 0.00192 7.31 0.0035 5.34 0.00244 10.7 0.00173 16-0.00166 8-0.00506 16-0.00438 24-0.00253 13.6 0.00297 27.2 0.00119 40.9-0.00314 13.8-0.00437 27.6-0.00657 41.4-0.0061 0.871 2.87e-5 1.74 5.74e-5 2.64 8.69e-5 4.44 1.56e-4 8.88 3.48e-4 13.3 5.53e-4 32.2 0.00141 64.4-0.00203 96.5-0.00802 31.9-0.00592 63.8-0.00977 95.6-0.0109 1.48-5.16e-5 1.48-5.16e-5 3-1.04e-4 9.04-3.13e-4 18.1-6.01e-4 27.1-8.58e-4 22.5-6.39e-4 44.9-0.0016 67.4-0.00278 1.02-5.33e-5 2.05-1.07e-4 3.1-1.62e-4 49.8-0.00262 99.6-0.00893 149-0.0155 17.3-0.00229 34.6-0.00457 51.9-0.00677 1.07-1.37e-4 2.14-2.74e-4 3.25-4.15e-4 49.8-0.00634 99.6-0.0101 149-0.0131 3.23-1.98e-4 6.47-3.97e-4 9.7-5.97e-4 21.4-0.00132 42.8-0.00259 64.3-0.00384 42.6-0.00248 85.3-0.00522 128-0.00814 2.03-1.39e-4 4.06-2.78e-4 6.09-4.17e-4 91.4-0.00625 183-0.0156 274-0.0263 0.856-9.99e-5 1.71-2e-4 2.59-3.03e-4 42.8-5e-3 85.7-0.0102 128-0.0156 0.0171-70.1 0.033-140 0.0423-210 1.38e-4 -1.04 2.76e-4 -2.07 4.18e-4 -3.14 0.00299-22.5 0.00576-45 0.0083-67.5 0.00125-11 0.00254-22.1 0.00387-33.1 1.31e-4 -1.1 2.62e-4 -2.2 3.96e-4 -3.33 0.00427-35.6 0.0118-71.3 0.021-107 0.00942-36.6 0.0156-73.2 0.0176-110 2.88e-4 -5.16 6.14e-4 -10.3 9.62e-4 -15.5 1.01e-4 -1.52 1.01e-4 -1.52 2.04e-4 -3.08 0.00118-16.4 0.00583-32.8 0.0118-49.2 0.00587-16.5 0.00814-32.9 0.00667-49.4-7.64e-4 -9.8 0.00129-19.6 0.0073-29.4 0.00373-6.53 0.00388-13.1 0.00103-19.6-0.00152-3.73-0.0014-7.46 0.00305-11.2 0.00475-4 0.00188-8.01-0.00184-12 0.00263-1.18 0.00525-2.35 0.00796-3.57-0.00225-1.06-0.00449-2.11-0.00681-3.2 1.56e-4 -0.917 3.12e-4 -1.83 4.73e-4 -2.78 0.104-2.05 0.104-2.05-1.12-3.06-3.1-0.101-6.17-0.135-9.26-0.128-0.991-0.00165-1.98-0.0033-3-5e-3 -3.37-0.00437-6.74-0.00151-10.1 0.00123-2.43-0.00165-4.86-0.00373-7.3-0.00622-5.33-0.00443-10.7-0.00569-16-0.00427-7.98 0.00211-16-0.00148-23.9-0.00621-13.6-0.00789-27.2-0.011-40.8-0.0114-13.8-5.02e-4 -27.6-0.00314-41.4-0.00841-0.87-3.3e-4 -1.74-6.6e-4 -2.63-1e-3 -3.54-0.00135-7.08-0.00271-10.6-0.00409-42-0.0163-83.9-0.0227-126-0.0274-20.9-0.00238-41.8-0.00608-62.7-0.01-67-0.0127-134-0.0234-201-0.0268-3.2-1.62e-4 -6.4-3.28e-4 -9.61-4.94e-4 -6.42-3.34e-4 -12.8-6.64e-4 -19.3-9.95e-4 -7.52-3.87e-4 -15-7.77e-4 -22.6-0.00117-2.15-1.12e-4 -4.3-2.24e-4 -6.46-3.34e-4 -69.1-0.00355-138-0.0186-207-0.0419-49.7-0.0167-99.3-0.0322-149-0.0367-1.02-9.35e-5 -2.04-1.87e-4 -3.09-2.83e-4 -22.4-0.00202-44.8-0.00318-67.2-0.00353-8.02-1.36e-4 -16-3.45e-4 -24-5.93e-4 -1.99-6.16e-5 -3.99-1.2e-4 -5.98-1.75e-4 -31.8-9.21e-4 -63.6-0.0109-95.5-0.0255-32-0.0146-64.1-0.0197-96.1-0.0116-4.42 0.00112-8.84 0.00213-13.3 0.00307-0.867 1.9e-4 -1.73 3.8e-4 -2.63 5.76e-4 -13.8 0.00274-27.5-0.00463-41.3-0.0161-13.5-0.0111-27-0.0116-40.5-6.3e-4 -7.93 0.00612-15.9 0.00393-23.8-0.0103-5.87-0.00959-11.7-0.00374-17.6 0.00841-2.37 0.00246-4.75-2.28e-4 -7.12-0.0084-3.2-0.0103-6.4-0.00243-9.6 0.0103-1.4-0.0111-1.4-0.0111-2.83-0.0224-0.846 0.00716-1.69 0.0143-2.56 0.0217-0.73-1e-4 -1.46-2e-4 -2.21-3.03e-4 -2.48 0.486-3.37 1.41-4.91 3.37z" fill="#020202"/>
<path transform="translate(1141 326)" d="m0 0c0.839-1.46e-4 1.68-2.92e-4 2.54-4.43e-4 2.78 6.98e-4 5.56 0.00849 8.34 0.0163 1.93 0.00186 3.85 0.00329 5.78 0.00429 5.07 0.00382 10.1 0.0137 15.2 0.0247 5.17 0.0102 10.3 0.0148 15.5 0.0198 10.2 0.0107 20.3 0.0278 30.5 0.0488 0.33 1.65 0.66 3.3 1 5-4.4 0.0247-8.79 0.0428-13.2 0.0549-1.5 0.00504-2.99 0.0119-4.49 0.0205-2.15 0.0121-4.29 0.0178-6.44 0.0222-1.29 0.00524-2.59 0.0105-3.92 0.0159-2.96-0.114-2.96-0.114-3.96-1.11-2.14-0.159-4.29-0.251-6.44-0.316-1.31-0.0419-2.61-0.0838-3.96-0.127-1.39-0.0398-2.78-0.0795-4.17-0.119-1.39-0.0432-2.79-0.0868-4.18-0.131-3.42-0.106-6.84-0.209-10.3-0.307v2c-0.615 0.00935-1.23 0.0187-1.86 0.0283-2.8 0.0538-5.59 0.137-8.39 0.222-0.968 0.0142-1.94 0.0284-2.93 0.043l-2.83 0.0977c-0.859 0.0209-1.72 0.0419-2.6 0.0635-3.24 0.743-4.3 1.97-6.38 4.55-1.3 2.21-2.48 4.38-3.62 6.66-0.5 0.979-0.5 0.979-1.01 1.98-1.09 2.14-2.17 4.28-3.25 6.42-0.763 1.5-1.53 3-2.29 4.5-1.55 3.04-3.1 6.08-4.64 9.13-3.03 5.96-6.11 11.9-9.19 17.8-3.83 7.37-7.64 14.7-11.4 22.1-0.569 1.11-0.569 1.11-1.15 2.23-1.85 3.6-3.7 7.21-5.55 10.8-1.33 2.59-2.67 5.18-4.02 7.76-1.2 2.3-2.36 4.61-3.5 6.94-0.505 1-1.01 2-1.53 3.03-0.427 0.869-0.853 1.74-1.29 2.63-2.05 2.65-3.21 2.51-6.52 2.96-2.82 0.152-5.63 0.26-8.45 0.321-0.85 0.0212-1.7 0.0423-2.58 0.0642-2.85 0.068-5.7 0.127-8.56 0.185-1.51 0.0319-1.51 0.0319-3.04 0.0645-25.6 0.529-51.3 0.41-76.9 0.275-6.9-0.0361-13.8-0.065-20.7-0.0938-12.3-0.0514-24.6-0.108-36.9-0.168-11.9-0.0582-23.8-0.114-35.7-0.166-0.741-0.00325-1.48-0.0065-2.24-0.00985-3.72-0.0163-7.44-0.0325-11.2-0.0488-30.6-0.134-61.2-0.276-91.7-0.424-0.625-1.88-0.625-1.88-1-4 2-2 2-2 4.16-2.25 0.904 7.59e-4 1.81 0.00152 2.74 0.0023 1.04-0.00398 2.08-0.00796 3.16-0.0121 1.15 0.00583 2.31 0.0117 3.5 0.0177 1.22-0.00171 2.44-0.00342 3.69-0.00518 3.39-0.00273 6.79 0.00355 10.2 0.0136 3.66 0.00861 7.31 0.00572 11 0.0042 6.34-0.00105 12.7 0.00524 19 0.0165 9.16 0.0162 18.3 0.0215 27.5 0.024 14.9 0.00438 29.7 0.0177 44.6 0.0366 14.4 0.0183 28.9 0.0325 43.3 0.041 0.89 5.25e-4 1.78 0.00105 2.7 0.00159 4.46 0.00261 8.93 0.00514 13.4 0.00762 37 0.0207 74.1 0.056 111 0.101 0.307-0.94 0.613-1.88 0.929-2.85 0.965-2.84 2.07-5.32 3.47-7.96 0.709-1.35 0.709-1.35 1.43-2.73 0.509-0.958 1.02-1.92 1.54-2.9 1.1-2.08 2.19-4.16 3.29-6.24 0.558-1.06 1.12-2.11 1.69-3.2 2.5-4.74 4.98-9.49 7.46-14.2 0.488-0.935 0.976-1.87 1.48-2.83 3.73-7.14 7.43-14.3 11.1-21.5 0.946-1.83 1.89-3.66 2.84-5.49 2.92-5.65 5.84-11.3 8.74-17 1.29-2.53 2.59-5.05 3.88-7.57 0.912-1.78 1.82-3.56 2.72-5.35 0.548-1.07 1.1-2.13 1.66-3.23 0.481-0.941 0.961-1.88 1.46-2.85 2.6-4.35 6.85-3.27 11.4-3.25z" fill="#020202"/>
<path transform="translate(784 435)" d="m0 0c0.919 0.00514 1.84 0.0103 2.79 0.0156 0.973-0.00241 1.95-0.00483 2.95-0.00732 3.28-0.00566 6.56 0.00305 9.84 0.0116 2.34-0.00107 4.69-0.00301 7.03-0.00575 6.38-0.00486 12.8 0.00283 19.1 0.013 6 0.00788 12 0.00716 18 0.00672 11.9-5.01e-4 23.8 0.00867 35.7 0.0232 11.5 0.0141 23.1 0.0212 34.6 0.0205 1.06-5.99e-5 1.06-5.99e-5 2.15-1.21e-4 0.708-4.04e-5 1.42-8.07e-5 2.15-1.22e-4 12.5-6.56e-4 24.9 0.00447 37.4 0.0128 5.31 0.00353 10.6 0.00536 15.9 0.00589 6.25 0.00101 12.5 0.00712 18.8 0.0172 2.29 0.00292 4.59 0.00415 6.88 0.00357 3.13-4.91e-4 6.27 0.00517 9.4 0.0124 0.908-0.00155 1.82-0.0031 2.75-0.00469 4.82 0.0184 9.39 0.327 14.1 1.14v1c-4.22 0.804-8.2 1.12-12.5 1.1-1.2-0.00322-2.4-0.00645-3.63-0.00977-1.86-0.0126-1.86-0.0126-3.75-0.0254-1.26-0.00451-2.52-0.00902-3.82-0.0137-3.1-0.0117-6.2-0.0282-9.3-0.0488v2h38v1h-252c-0.33-1.32-0.66-2.64-1-4 2.7-2.7 4.81-2.24 8.48-2.26z" fill="#020202"/>
<path transform="translate(1036 437)" d="m0 0c0.709-0.0025 1.42-5e-3 2.15-0.00757 2.01-0.00585 4.03-0.00324 6.04-2.44e-4 1.74 0.00169 1.74 0.00169 3.51 0.00342 2.74 0.129 2.74 0.129 4.74 1.13 2.21 0.0709 4.42 0.0842 6.62 0.0625 1.78-0.0135 1.78-0.0135 3.6-0.0273 1.37-0.0174 1.37-0.0174 2.77-0.0352-0.33 0.66-0.66 1.32-1 2h-73v-2c14.9-0.692 29.7-1.11 44.6-1.12z" fill="#FDFDFD"/>
</svg>
